<?xml version="1.0" encoding="UTF-8"?><svg id="Layer_2" xmlns="http://www.w3.org/2000/svg" viewBox="0 0 50 48.5"><defs><style>.cls-1{fill:#d81a80;}</style></defs><g id="Layer_1-2"><path class="cls-1" d="M48.78,20.66v26.61H2.9V20.66H48.78m1.22-1.22H1.68v29.06H50V19.44h0Z"/><path class="cls-1" d="M48.78,20.66v5.2H2.9v-5.2H48.78m1.22-1.22H1.68v7.65H50v-7.65h0Z"/><polygon class="cls-1" points="8.71 26.17 4.73 26.17 9.02 20.36 12.99 20.36 8.71 26.17"/><polygon class="cls-1" points="16.97 26.47 12.99 26.47 17.27 20.66 21.25 20.66 16.97 26.47"/><polygon class="cls-1" points="25.23 25.86 21.25 25.86 25.53 20.05 29.51 20.05 25.23 25.86"/><polygon class="cls-1" points="33.48 25.86 29.51 25.86 33.79 20.05 37.77 20.05 33.48 25.86"/><polygon class="cls-1" points="41.74 25.86 37.77 25.86 42.05 20.05 46.02 20.05 41.74 25.86"/><polygon class="cls-1" points="49.39 26.17 45.72 26.17 49.39 21.58 49.39 26.17"/><polygon class="cls-1" points="1.98 19.75 5.35 19.75 1.76 24.02 1.98 19.75"/><path class="cls-1" d="M45.73,1.5l1.38,5.01L2.89,18.72l-1.38-5.01L45.73,1.5m.85-1.5L0,12.85l2.03,7.37L48.62,7.37l-2.03-7.37h0Z"/><polygon class="cls-1" points="33.71 10.85 37.55 9.79 31.87 5.33 28.04 6.39 33.71 10.85"/><polygon class="cls-1" points="25.59 12.45 29.42 11.4 23.75 6.93 19.92 7.99 25.59 12.45"/><polygon class="cls-1" points="17.63 14.65 21.46 13.59 15.79 9.13 11.96 10.19 17.63 14.65"/><polygon class="cls-1" points="9.67 16.85 13.5 15.79 7.83 11.33 4 12.38 9.67 16.85"/><polygon class="cls-1" points="2.38 19.18 5.92 18.2 1.16 14.75 2.38 19.18"/></g></svg>