<?xml version="1.0" encoding="UTF-8"?><svg id="Layer_2" xmlns="http://www.w3.org/2000/svg" xmlns:xlink="http://www.w3.org/1999/xlink" viewBox="0 0 50 36.88"><defs><style>.cls-1{fill:#d81a80;}.cls-2{clip-path:url(#clippath);}.cls-3{fill:none;}</style><clipPath id="clippath"><rect class="cls-3" y="0" width="50" height="36.88"/></clipPath></defs><g id="Layer_1-2"><g class="cls-2"><path class="cls-1" d="M50,17.62v1.65c-.02,.09-.04,.18-.05,.27-.09,.72-.14,1.44-.26,2.15-.38,2.31-1.22,4.46-2.45,6.44-1.87,3.01-4.41,5.31-7.59,6.88-1.85,.91-3.81,1.49-5.86,1.73-.45,.05-.91,.1-1.36,.15H14.87c-.09-.02-.18-.04-.27-.05-1.77-.11-3.48-.52-5.1-1.23-3.54-1.55-6.17-4.05-7.9-7.51-.77-1.53-1.25-3.15-1.46-4.86-.05-.41-.1-.82-.15-1.23v-1.6c.02-.09,.04-.18,.05-.27,.09-1.53,.41-3.02,.96-4.46,1.49-3.85,4.09-6.71,7.79-8.56,1.92-.96,3.96-1.46,6.1-1.58,1.05-.05,2.09,0,3.13,.14,.09,.01,.23-.03,.3-.1,1.5-1.53,3.2-2.77,5.12-3.71,1.86-.91,3.82-1.5,5.89-1.74,.49-.06,.97-.1,1.46-.15h1.5c.1,.02,.2,.03,.29,.04,.74,.09,1.49,.14,2.22,.26,2.29,.38,4.43,1.21,6.4,2.43,3.03,1.87,5.34,4.41,6.91,7.61,.91,1.85,1.49,3.81,1.73,5.86,.05,.47,.1,.94,.15,1.41M22.04,6.96s.04,.06,.05,.06c1.03,.51,2.01,1.1,2.94,1.78,.06,.04,.2,.02,.27-.02,2.55-1.61,5.31-2.17,8.27-1.64,2.91,.52,5.27,1.97,7.08,4.29,2.05,2.62,2.83,5.59,2.26,8.89-.38,2.21-1.27,4.2-2.77,5.86-2.75,3.03-6.19,4.29-10.24,3.75-2.49-.33-4.65-1.4-6.43-3.2-2.29-2.31-4.59-4.61-6.88-6.91-.31-.31-.65-.55-1.09-.61-.77-.09-1.47,.29-1.8,.98-.3,.62-.26,1.31,.38,1.94,2.56,2.51,5.09,5.04,7.65,7.56,.44,.43,.91,.83,1.4,1.19,1.87,1.36,3.97,2.1,6.25,2.41,1.79,.24,3.56,.19,5.32-.21,3.36-.75,6.14-2.47,8.33-5.11,1.81-2.19,2.9-4.7,3.28-7.52,.22-1.62,.18-3.23-.14-4.84-.51-2.6-1.61-4.94-3.38-6.92-3.37-3.78-7.61-5.47-12.65-5.1-1.94,.15-3.78,.71-5.5,1.62-.93,.49-1.8,1.06-2.61,1.74m-1.23,26.41c-.09-.08-.15-.14-.21-.19-1.05-.99-2.1-1.97-3.13-2.97-.2-.19-.38-.29-.67-.28-1.05,.03-2.09,.03-3.13-.2-5.13-1.16-8.11-6.73-6.22-11.64,1.49-3.87,5.62-6.22,9.69-5.5,1.82,.33,3.42,1.1,4.74,2.45,1.6,1.65,3.25,3.26,4.87,4.9,.37,.37,.79,.54,1.3,.47,.66-.09,1.19-.41,1.42-1.06,.23-.64,.12-1.24-.36-1.73-1.7-1.72-3.36-3.49-5.13-5.14-3.43-3.2-7.48-4.15-11.95-2.79-6.02,1.83-9.54,8.04-8.16,14.17,1.25,5.59,6.14,9.51,11.86,9.51,1.6,0,3.19,0,4.79,0,.08,0,.16,0,.28-.01"/></g></g></svg>