<?xml version="1.0" encoding="UTF-8"?><svg id="Layer_2" xmlns="http://www.w3.org/2000/svg" viewBox="0 0 50 44.53"><defs><style>.cls-1{fill:#d81a80;}</style></defs><g id="Layer_1-2"><g><path class="cls-1" d="M50,22.27c0-3.31-4.15-6.45-10.51-8.4,1.47-6.48,.82-11.64-2.06-13.29-.66-.39-1.44-.57-2.28-.57V2.28c.47,0,.85,.09,1.16,.26,1.39,.79,1.99,3.82,1.52,7.72-.11,.96-.3,1.97-.52,3-2-.49-4.18-.87-6.47-1.11-1.38-1.89-2.8-3.6-4.24-5.1,3.32-3.09,6.44-4.78,8.56-4.78V0c-2.8,0-6.47,2-10.18,5.46C21.27,2.02,17.6,.04,14.8,.04V2.31c2.11,0,5.24,1.68,8.56,4.75-1.43,1.5-2.85,3.2-4.21,5.09-2.3,.24-4.48,.62-6.48,1.12-.23-1.02-.41-2.01-.53-2.96-.48-3.89,.11-6.92,1.49-7.73,.31-.18,.7-.26,1.17-.26V.05c-.86,0-1.63,.18-2.3,.57-2.86,1.65-3.51,6.8-2.03,13.26C4.13,15.84,0,18.97,0,22.27s4.15,6.45,10.51,8.4c-1.47,6.48-.82,11.64,2.06,13.29,.66,.39,1.44,.57,2.29,.57,2.8,0,6.47-2,10.18-5.46,3.71,3.44,7.38,5.42,10.18,5.42,.86,0,1.63-.18,2.3-.57,2.86-1.65,3.51-6.8,2.03-13.26,6.32-1.95,10.45-5.09,10.45-8.39h0Zm-13.27-6.8c-.38,1.31-.85,2.67-1.38,4.03-.42-.82-.86-1.63-1.34-2.45-.47-.82-.97-1.61-1.47-2.38,1.45,.21,2.84,.48,4.18,.81h0Zm-4.67,10.85c-.79,1.38-1.61,2.68-2.46,3.89-1.52,.13-3.06,.2-4.61,.2s-3.08-.07-4.59-.19c-.85-1.21-1.67-2.51-2.47-3.87-.77-1.34-1.48-2.69-2.12-4.06,.63-1.37,1.35-2.73,2.11-4.07,.79-1.38,1.61-2.68,2.46-3.89,1.52-.13,3.06-.2,4.61-.2s3.08,.07,4.59,.19c.85,1.21,1.67,2.51,2.47,3.87,.77,1.34,1.48,2.69,2.12,4.06-.64,1.37-1.35,2.73-2.11,4.07h0Zm3.29-1.32c.55,1.37,1.02,2.73,1.41,4.06-1.34,.33-2.74,.6-4.2,.82,.5-.78,1-1.59,1.47-2.42,.47-.82,.91-1.64,1.32-2.46h0Zm-10.33,10.87c-.95-.98-1.9-2.07-2.83-3.26,.92,.04,1.85,.07,2.8,.07s1.91-.02,2.83-.07c-.92,1.19-1.87,2.28-2.8,3.26Zm-7.58-6c-1.45-.21-2.84-.48-4.18-.81,.38-1.31,.85-2.67,1.38-4.03,.42,.82,.86,1.63,1.34,2.45s.97,1.61,1.47,2.38Zm7.53-21.21c.95,.98,1.9,2.07,2.83,3.26-.92-.04-1.85-.07-2.8-.07s-1.91,.02-2.83,.07c.92-1.19,1.87-2.28,2.8-3.26Zm-7.54,6c-.5,.78-1,1.59-1.47,2.42-.47,.82-.91,1.63-1.32,2.45-.55-1.37-1.02-2.73-1.41-4.06,1.34-.32,2.74-.59,4.2-.81h0Zm-9.22,12.76c-3.61-1.54-5.94-3.56-5.94-5.16s2.33-3.63,5.94-5.16c.88-.38,1.83-.71,2.82-1.03,.58,2,1.35,4.08,2.29,6.21-.94,2.12-1.69,4.19-2.26,6.18-1.01-.32-1.97-.66-2.85-1.04h0Zm5.48,14.56c-1.39-.79-1.99-3.82-1.52-7.72,.11-.96,.3-1.97,.52-3,2,.49,4.18,.87,6.47,1.11,1.38,1.89,2.8,3.6,4.24,5.1-3.32,3.09-6.44,4.78-8.56,4.78-.46-.01-.85-.1-1.15-.28h0Zm24.17-7.77c.48,3.89-.11,6.92-1.49,7.73-.31,.18-.7,.26-1.17,.26-2.11,0-5.24-1.68-8.56-4.75,1.43-1.5,2.85-3.2,4.21-5.09,2.3-.24,4.48-.62,6.48-1.12,.23,1.03,.42,2.02,.53,2.97Zm3.92-6.8c-.88,.38-1.83,.71-2.82,1.03-.58-2-1.35-4.08-2.29-6.21,.94-2.12,1.69-4.19,2.26-6.18,1.01,.32,1.97,.66,2.86,1.04,3.61,1.54,5.94,3.56,5.94,5.16-.01,1.6-2.34,3.63-5.95,5.16h0Z"/><circle class="cls-1" cx="24.99" cy="22.27" r="4.66"/></g></g></svg>