<?xml version="1.0" encoding="UTF-8"?><svg id="Layer_2" xmlns="http://www.w3.org/2000/svg" viewBox="0 0 15.24 15.16"><defs><style>.cls-1{fill:#d81a80;}</style></defs><g id="Layer_1-2"><path class="cls-1" d="M5.84,14.98c-2.01-.44-3.58-1.57-4.7-3.41S-.27,7.83,.25,5.83C.78,3.84,1.96,2.28,3.8,1.16S7.53-.26,9.53,.22l-.65,2.25c-1.32-.3-2.61-.07-3.86,.7s-2.02,1.81-2.35,3.16c-.32,1.35-.1,2.65,.66,3.9s1.82,2.04,3.16,2.37,2.64,.11,3.88-.65c1.17-.71,1.94-1.67,2.31-2.87l-1.39-2.27-3.44,2.1-1.2-1.97,5.54-3.38,3.04,4.99c-.15,1.08-.54,2.1-1.17,3.05-.63,.95-1.45,1.74-2.47,2.36-1.83,1.12-3.76,1.46-5.77,1.02Z"/></g></svg>