<?xml version="1.0" encoding="UTF-8"?><svg id="Layer_2" xmlns="http://www.w3.org/2000/svg" viewBox="0 0 50 56.19"><defs><style>.cls-1{fill:#d81a80;}</style></defs><g id="Layer_1-2"><path class="cls-1" d="M19.2,2.93c8.97,0,16.27,7.3,16.27,16.27s-7.3,16.27-16.27,16.27S2.93,28.17,2.93,19.2,10.22,2.93,19.2,2.93m0-2.93C8.59,0,0,8.59,0,19.2s8.59,19.2,19.2,19.2,19.2-8.59,19.2-19.2S29.8,0,19.2,0h0Z"/><rect class="cls-1" x="37.66" y="31.11" width="2.93" height="23.7" transform="translate(-18.18 33.3) rotate(-38.11)"/><rect class="cls-1" x="41.68" y="42.01" width="4.39" height="14.34" transform="translate(-20.92 37.15) rotate(-37.75)"/><path class="cls-1" d="M16.82,31.08c-6.45,0-11.7-6.23-11.7-13.89h1.46c0,6.86,4.59,12.43,10.24,12.43v1.46Z"/><path class="cls-1" d="M31.93,19.38l-1.45-.15c.59-5.61-4.48-10.77-11.29-11.48l.15-1.45c7.62,.8,13.27,6.67,12.6,13.09Z"/></g></svg>