<?xml version="1.0" encoding="UTF-8"?><svg id="Layer_2" xmlns="http://www.w3.org/2000/svg" viewBox="0 0 50 48.43"><defs><style>.cls-1{fill:#d81a80;}</style></defs><g id="Layer_1-2"><path class="cls-1" d="M29.2,1.27c6.27,0,11.72,2.4,15.33,6.77,3.6,4.34,4.95,10.11,3.81,16.25-.16,.86-.58,.97-1,.97-.37,0-.83-.11-1.32-.33-.86-.37-1.7-.56-2.51-.56-2.08,0-3.87,1.18-5.33,3.52-2.14,3.42,.18,7.71,1.89,9.24,.27,.24,.42,.58,.43,.94,0,.38-.15,.76-.43,1.02-.51,.48-1.03,.95-1.57,1.4-5.19,4.3-11.47,6.66-17.68,6.66s-11.72-2.4-15.33-6.77C1.9,36.08,.54,30.34,1.64,24.25c1.12-6.17,4.63-11.97,9.87-16.31C16.71,3.64,22.99,1.27,29.2,1.27M29.2,0c-6.24,0-12.89,2.32-18.49,6.96C-.62,16.34-3.4,31.67,4.49,41.2c3.99,4.82,9.94,7.23,16.31,7.23s12.89-2.32,18.49-6.96c.57-.47,1.11-.96,1.64-1.46,1.1-1.05,1.11-2.83-.03-3.84-1.41-1.26-3.37-4.89-1.66-7.61,1.31-2.1,2.76-2.92,4.25-2.92,.66,0,1.34,.17,2.01,.46,.68,.3,1.3,.44,1.83,.44,1.2,0,2.01-.71,2.25-2.02,1.16-6.23-.1-12.5-4.08-17.29C41.52,2.41,35.57,0,29.2,0h0Z"/><circle class="cls-1" cx="31.07" cy="37.43" r="3.07"/><circle class="cls-1" cx="18.8" cy="36.74" r="4.77"/><circle class="cls-1" cx="10.1" cy="27.71" r="6.65"/><circle class="cls-1" cx="15.9" cy="14.42" r="5.62"/><circle class="cls-1" cx="25.78" cy="8.28" r="4.6"/><circle class="cls-1" cx="36.86" cy="9.14" r="3.41"/><circle class="cls-1" cx="41.63" cy="16.29" r="2.73"/></g></svg>