<?xml version="1.0" encoding="UTF-8"?><svg id="Layer_2" xmlns="http://www.w3.org/2000/svg" viewBox="0 0 136.74 153.67"><defs><style>.cls-1{fill:#f5f5f5;}</style></defs><g id="Layer_1-2"><path class="cls-1" d="M52.5,8c24.54,0,44.5,19.96,44.5,44.5s-19.96,44.5-44.5,44.5S8,77.04,8,52.5,27.96,8,52.5,8m0-8C23.51,0,0,23.51,0,52.5s23.51,52.5,52.5,52.5,52.5-23.51,52.5-52.5S81.49,0,52.5,0h0Z"/><rect class="cls-1" x="103" y="85.09" width="8" height="64.82" transform="translate(-49.71 91.08) rotate(-38.11)"/><rect class="cls-1" x="114" y="114.9" width="12" height="39.2" transform="translate(-57.22 101.61) rotate(-37.75)"/><path class="cls-1" d="M46,85c-17.64,0-32-17.05-32-38h4c0,18.75,12.56,34,28,34v4Z"/><path class="cls-1" d="M87.32,53.01l-3.98-.42c1.61-15.36-12.24-29.44-30.89-31.4l.42-3.98c20.84,2.19,36.29,18.25,34.45,35.8Z"/></g></svg>