<?xml version="1.0" encoding="UTF-8"?><svg id="Layer_2" xmlns="http://www.w3.org/2000/svg" viewBox="0 0 157.01 152.08"><defs><style>.cls-1{fill:#f5f5f5;}</style></defs><g id="Layer_1-2"><path class="cls-1" d="M91.69,4c19.69,0,36.79,7.55,48.14,21.25,11.3,13.64,15.54,31.76,11.95,51.02-.5,2.69-1.81,3.06-3.14,3.06-1.15,0-2.59-.36-4.16-1.04-2.69-1.17-5.35-1.77-7.89-1.77-6.52,0-12.15,3.72-16.73,11.06-6.72,10.75,.56,24.2,5.95,29.01,.85,.76,1.32,1.81,1.34,2.97,.02,1.2-.47,2.38-1.35,3.21-1.59,1.51-3.25,2.99-4.94,4.39-16.29,13.5-36.01,20.93-55.52,20.93s-36.79-7.55-48.14-21.25C-6.16,98.65,2.36,52.93,36.17,24.93,52.46,11.43,72.18,4,91.69,4M91.69,0c-19.6,0-40.47,7.27-58.07,21.85C-1.95,51.31-10.68,99.45,14.11,129.38c12.52,15.12,31.21,22.7,51.22,22.7s40.47-7.27,58.07-21.85c1.78-1.48,3.5-3,5.15-4.57,3.46-3.3,3.48-8.87-.09-12.06-4.42-3.95-10.57-15.35-5.22-23.91,4.11-6.58,8.67-9.18,13.34-9.18,2.09,0,4.2,.52,6.3,1.43,2.13,.93,4.07,1.38,5.76,1.38,3.77,0,6.31-2.23,7.07-6.33,3.65-19.58-.33-39.24-12.8-54.3C130.38,7.58,111.7,0,91.69,0h0Z"/><circle class="cls-1" cx="97.55" cy="117.52" r="9.63"/><circle class="cls-1" cx="59.02" cy="115.38" r="14.98"/><circle class="cls-1" cx="31.73" cy="87.02" r="20.87"/><circle class="cls-1" cx="49.92" cy="45.28" r="17.66"/><circle class="cls-1" cx="80.96" cy="26.01" r="14.45"/><circle class="cls-1" cx="115.75" cy="28.69" r="10.7"/><circle class="cls-1" cx="130.73" cy="51.17" r="8.56"/></g></svg>