<?xml version="1.0" encoding="UTF-8"?><svg id="Layer_2" xmlns="http://www.w3.org/2000/svg" xmlns:xlink="http://www.w3.org/1999/xlink" viewBox="0 0 158 116.53"><defs><style>.cls-1{fill:#f5f5f5;}.cls-2{clip-path:url(#clippath);}.cls-3{fill:none;}</style><clipPath id="clippath"><rect class="cls-3" y="0" width="158" height="116.53"/></clipPath></defs><g id="Layer_1-2"><g class="cls-2"><path class="cls-1" d="M158,55.67v5.2c-.05,.28-.11,.56-.14,.84-.27,2.26-.44,4.54-.82,6.79-1.21,7.3-3.84,14.08-7.74,20.36-5.92,9.52-13.93,16.79-24,21.75-5.85,2.88-12.03,4.72-18.51,5.46-1.43,.17-2.86,.31-4.29,.47H46.99c-.28-.05-.56-.14-.84-.15-5.6-.35-10.98-1.63-16.11-3.87-11.17-4.89-19.51-12.81-24.96-23.72-2.42-4.84-3.96-9.97-4.61-15.35-.16-1.3-.31-2.6-.47-3.89v-5.05c.05-.28,.14-.56,.15-.84,.29-4.85,1.28-9.56,3.04-14.08,4.71-12.18,12.93-21.21,24.61-27.05,6.06-3.03,12.52-4.63,19.27-4.98,3.31-.17,6.61,.01,9.9,.45,.3,.04,.73-.09,.93-.3,4.73-4.83,10.11-8.75,16.18-11.72,5.89-2.88,12.08-4.74,18.6-5.48,1.54-.18,3.07-.32,4.61-.48h4.73c.31,.05,.62,.1,.93,.14,2.35,.27,4.7,.44,7.02,.83,7.25,1.22,13.99,3.82,20.23,7.68,9.57,5.92,16.87,13.94,21.85,24.04,2.89,5.86,4.72,12.03,5.47,18.53,.17,1.48,.31,2.97,.47,4.45M69.66,22.01c.1,.13,.12,.18,.16,.2,3.26,1.6,6.34,3.48,9.28,5.61,.18,.13,.64,.08,.87-.06,8.05-5.1,16.77-6.86,26.14-5.2,9.18,1.63,16.65,6.22,22.36,13.54,6.46,8.29,8.93,17.67,7.14,28.1-1.2,6.99-4,13.27-8.76,18.52-8.69,9.58-19.56,13.54-32.37,11.86-7.88-1.03-14.69-4.43-20.32-10.13-7.23-7.3-14.51-14.56-21.75-21.84-.97-.97-2.04-1.75-3.43-1.92-2.43-.3-4.64,.92-5.69,3.1-.94,1.95-.82,4.15,1.22,6.14,8.08,7.93,16.09,15.94,24.17,23.88,1.38,1.36,2.87,2.64,4.43,3.77,5.9,4.28,12.55,6.65,19.75,7.6,5.65,.75,11.26,.59,16.82-.66,10.61-2.38,19.41-7.8,26.33-16.16,5.72-6.91,9.18-14.85,10.38-23.76,.69-5.12,.56-10.22-.43-15.28-1.61-8.23-5.09-15.6-10.67-21.87-10.65-11.95-24.04-17.29-39.98-16.1-6.13,.46-11.93,2.26-17.39,5.12-2.94,1.54-5.69,3.35-8.26,5.5m-3.9,83.45c-.29-.27-.47-.44-.66-.61-3.3-3.12-6.63-6.22-9.89-9.38-.63-.61-1.21-.91-2.11-.89-3.31,.08-6.62,.09-9.88-.64-16.2-3.67-25.61-21.28-19.64-36.78,4.71-12.22,17.75-19.67,30.61-17.37,5.76,1.03,10.82,3.47,14.97,7.75,5.06,5.23,10.28,10.31,15.4,15.48,1.16,1.18,2.5,1.72,4.12,1.49,2.09-.3,3.75-1.29,4.5-3.34,.74-2.01,.38-3.92-1.14-5.46-5.37-5.44-10.62-11.02-16.21-16.23-10.84-10.11-23.62-13.12-37.76-8.82-19.02,5.78-30.14,25.41-25.8,44.79,3.96,17.65,19.4,30.05,37.47,30.06,5.04,0,10.09,0,15.13,0,.25,0,.5-.02,.88-.04"/></g></g></svg>