<?xml version="1.0" encoding="UTF-8"?><svg id="Layer_2" xmlns="http://www.w3.org/2000/svg" viewBox="0 0 163.48 158.56"><defs><style>.cls-1{fill:#f5f5f5;}</style></defs><g id="Layer_1-2"><path class="cls-1" d="M159.48,67.56v87H9.48V67.56H159.48m4-4H5.48v95H163.48V63.56h0Z"/><path class="cls-1" d="M159.48,67.56v17H9.48v-17H159.48m4-4H5.48v25H163.48v-25h0Z"/><polygon class="cls-1" points="28.48 85.56 15.48 85.56 29.48 66.56 42.48 66.56 28.48 85.56"/><polygon class="cls-1" points="55.48 86.56 42.48 86.56 56.48 67.56 69.48 67.56 55.48 86.56"/><polygon class="cls-1" points="82.48 84.56 69.48 84.56 83.48 65.56 96.48 65.56 82.48 84.56"/><polygon class="cls-1" points="109.48 84.56 96.48 84.56 110.48 65.56 123.48 65.56 109.48 84.56"/><polygon class="cls-1" points="136.48 84.56 123.48 84.56 137.48 65.56 150.48 65.56 136.48 84.56"/><polygon class="cls-1" points="161.48 85.56 149.48 85.56 161.48 70.56 161.48 85.56"/><polygon class="cls-1" points="6.48 64.56 17.48 64.56 5.77 78.52 6.48 64.56"/><path class="cls-1" d="M149.52,4.92l4.52,16.39L9.44,61.2l-4.52-16.39L149.52,4.92m2.79-4.92L0,42.02l6.65,24.1L158.96,24.1,152.31,0h0Z"/><polygon class="cls-1" points="135.99 27.32 148.52 23.87 129.97 9.27 117.44 12.73 135.99 27.32"/><polygon class="cls-1" points="110.23 35.47 122.76 32.01 104.21 17.42 91.68 20.88 110.23 35.47"/><polygon class="cls-1" points="83.67 40.72 96.2 37.26 77.65 22.67 65.12 26.13 83.67 40.72"/><polygon class="cls-1" points="57.64 47.9 70.17 44.44 51.62 29.85 39.09 33.31 57.64 47.9"/><polygon class="cls-1" points="31.61 55.08 44.14 51.63 25.6 37.03 13.06 40.49 31.61 55.08"/><polygon class="cls-1" points="7.78 62.7 19.35 59.5 3.79 48.24 7.78 62.7"/><polygon class="cls-1" points="151.61 1.23 141.01 4.16 156.01 14.5 151.61 1.23"/></g></svg>