<?xml version="1.0" encoding="UTF-8"?><svg id="Layer_2" xmlns="http://www.w3.org/2000/svg" viewBox="0 0 157.27 140.05"><defs><style>.cls-1{fill:#f5f5f5;}</style></defs><g id="Layer_1-2"><g><path class="cls-1" d="M157.27,70.04c0-10.42-13.05-20.29-33.05-26.41,4.62-20.39,2.56-36.61-6.48-41.8-2.08-1.22-4.52-1.8-7.18-1.8V7.18c1.47,0,2.66,.29,3.65,.83,4.36,2.5,6.25,12.02,4.78,24.27-.35,3.01-.93,6.19-1.63,9.42-6.28-1.54-13.14-2.72-20.36-3.49-4.33-5.93-8.82-11.32-13.34-16.03,10.45-9.71,20.26-15.03,26.93-15.03V0c-8.82,0-20.36,6.28-32.02,17.18C66.9,6.35,55.36,.13,46.55,.13V7.28c6.64,0,16.48,5.29,26.93,14.94-4.49,4.71-8.98,10.07-13.24,16-7.24,.77-14.1,1.96-20.39,3.53-.74-3.21-1.28-6.32-1.67-9.3-1.51-12.25,.35-21.77,4.68-24.3,.96-.58,2.21-.83,3.69-.83V.16c-2.69,0-5.13,.58-7.24,1.8-9.01,5.19-11.03,21.38-6.38,41.7C12.98,49.82,0,59.66,0,70.04s13.05,20.29,33.05,26.41c-4.62,20.39-2.56,36.61,6.48,41.8,2.08,1.22,4.52,1.8,7.21,1.8,8.82,0,20.36-6.28,32.02-17.18,11.67,10.83,23.21,17.05,32.02,17.05,2.69,0,5.13-.58,7.24-1.8,9.01-5.19,11.03-21.38,6.38-41.7,19.87-6.12,32.86-16,32.86-26.38h0Zm-41.74-21.38c-1.19,4.14-2.66,8.4-4.33,12.66-1.31-2.56-2.69-5.13-4.2-7.69-1.47-2.56-3.05-5.06-4.62-7.5,4.55,.67,8.94,1.51,13.14,2.53h0Zm-14.68,34.14c-2.5,4.33-5.06,8.43-7.73,12.25-4.78,.42-9.62,.64-14.49,.64s-9.68-.22-14.43-.61c-2.66-3.81-5.26-7.89-7.76-12.18-2.44-4.2-4.65-8.46-6.67-12.76,1.99-4.3,4.23-8.59,6.64-12.79,2.5-4.33,5.06-8.43,7.73-12.25,4.78-.42,9.62-.64,14.49-.64s9.68,.22,14.43,.61c2.66,3.81,5.26,7.89,7.76,12.18,2.44,4.2,4.65,8.46,6.67,12.76-2.02,4.3-4.23,8.59-6.64,12.79h0Zm10.35-4.17c1.73,4.3,3.21,8.59,4.42,12.76-4.2,1.03-8.62,1.89-13.21,2.56,1.57-2.47,3.14-5,4.62-7.6,1.47-2.56,2.85-5.16,4.17-7.73h0Zm-32.5,34.2c-2.98-3.08-5.96-6.51-8.91-10.26,2.89,.13,5.83,.22,8.82,.22s5.99-.06,8.91-.22c-2.89,3.75-5.87,7.18-8.82,10.26Zm-23.85-18.88c-4.55-.67-8.94-1.51-13.14-2.53,1.19-4.14,2.66-8.4,4.33-12.66,1.31,2.56,2.69,5.13,4.2,7.69s3.05,5.06,4.62,7.5ZM78.54,27.25c2.98,3.08,5.96,6.51,8.91,10.26-2.89-.13-5.83-.22-8.82-.22s-5.99,.06-8.91,.22c2.89-3.75,5.87-7.18,8.82-10.26Zm-23.72,18.88c-1.57,2.47-3.14,5-4.62,7.6-1.47,2.56-2.85,5.13-4.17,7.69-1.73-4.3-3.21-8.59-4.42-12.76,4.2-.99,8.62-1.86,13.21-2.53h0Zm-29.01,40.13c-11.35-4.84-18.69-11.19-18.69-16.22s7.34-11.41,18.69-16.22c2.76-1.19,5.77-2.24,8.88-3.24,1.83,6.28,4.23,12.82,7.21,19.52-2.95,6.67-5.32,13.18-7.12,19.43-3.17-.99-6.19-2.08-8.98-3.27h0Zm17.25,45.81c-4.36-2.5-6.25-12.02-4.78-24.27,.35-3.01,.93-6.19,1.63-9.42,6.28,1.54,13.14,2.72,20.36,3.49,4.33,5.93,8.82,11.32,13.34,16.03-10.45,9.71-20.26,15.03-26.93,15.03-1.44-.03-2.66-.32-3.62-.87h0Zm76.04-24.43c1.51,12.25-.35,21.77-4.68,24.3-.96,.58-2.21,.83-3.69,.83-6.64,0-16.48-5.29-26.93-14.94,4.49-4.71,8.98-10.07,13.24-16,7.24-.77,14.1-1.96,20.39-3.53,.74,3.24,1.31,6.35,1.67,9.33Zm12.34-21.38c-2.76,1.19-5.77,2.24-8.88,3.24-1.83-6.28-4.23-12.82-7.21-19.52,2.95-6.67,5.32-13.18,7.12-19.43,3.17,.99,6.19,2.08,9.01,3.27,11.35,4.84,18.69,11.19,18.69,16.22-.03,5.03-7.37,11.41-18.72,16.22h0Z"/><circle class="cls-1" cx="78.6" cy="70.04" r="14.65"/></g></g></svg>